<svg width="658" height="658" viewBox="0 0 658 658" fill="none" xmlns="http://www.w3.org/2000/svg">
<circle cx="417" cy="221" r="56" fill="#00A73E"/>
<circle cx="61" cy="577" r="60" fill="#00A73E"/>
<path d="M553 334.6V85H474.6C396.785 85 340.348 85.0252 295.93 88.6543C251.885 92.2529 222.483 99.2353 198.227 111.595C152.315 134.988 114.988 172.315 91.5947 218.227C79.2353 242.483 72.2529 271.885 68.6543 315.93C65.0252 360.348 65 416.785 65 494.6V573H314.6C362.452 573 396.417 572.975 422.993 570.804C449.195 568.663 465.384 564.597 478.196 558.068C503.974 544.934 524.934 523.974 538.068 498.196C544.597 485.384 548.663 469.195 550.804 442.993C552.975 416.417 553 382.452 553 334.6ZM617 334.6C617 381.396 617.024 418.419 614.591 448.205C612.127 478.365 606.984 503.914 595.093 527.252C575.822 565.073 545.073 595.822 507.252 615.093C483.914 626.984 458.365 632.127 428.205 634.591C398.419 637.024 361.396 637 314.6 637H1V494.6C1 417.841 0.974785 358.347 4.86621 310.718C8.78818 262.715 16.8476 223.954 34.5703 189.171C64.0993 131.217 111.217 84.0993 169.171 54.5703C203.954 36.8476 242.715 28.7882 290.718 24.8662C338.347 20.9748 397.841 21 474.6 21H617V334.6Z" fill="#00A73E"/>
<rect x="417" y="374" width="240" height="64" fill="#00A73E"/>
</svg>
