<svg width="220" height="72" viewBox="0 0 220 72" fill="none" xmlns="http://www.w3.org/2000/svg">
<path d="M64 46.4004V8H57.5996C47.3869 8 40.2081 8.00619 34.6064 8.46387C29.0983 8.91392 25.8227 9.7603 23.2881 11.0518C18.0196 13.7362 13.7362 18.0196 11.0518 23.2881C9.7603 25.8227 8.91392 29.0983 8.46387 34.6064C8.00619 40.2081 8 47.3869 8 57.5996V64H46.4004V72H0V57.5996C1.60107e-10 38.0682 0.000194073 27.9972 3.56738 20.3857L3.92383 19.6562C7.26749 13.094 12.5405 7.72022 19.0254 4.25293L19.6562 3.92383C27.357 8.79765e-05 37.438 1.64371e-10 57.5996 0H72L71.9971 49.5566C71.9732 56.4643 71.7818 60.2689 70.2559 63.2637C68.7219 66.2743 66.2743 68.7219 63.2637 70.2559C60.2689 71.7818 56.4643 71.9732 49.5566 71.9971L46.4004 72V64C51.0123 64 53.9903 63.9937 56.2568 63.8086C58.4301 63.631 59.2363 63.3295 59.6318 63.1279C61.1371 62.3609 62.3609 61.1371 63.1279 59.6318C63.3295 59.2363 63.631 58.4301 63.8086 56.2568C63.9937 53.9903 64 51.0123 64 46.4004Z" fill="#009865"/>
<path d="M40 52C40 63.0457 31.0457 72 20 72C8.9543 72 0 63.0457 0 52C0 40.9543 8.9543 32 20 32C31.0457 32 40 40.9543 40 52Z" fill="#009865"/>
<path d="M56 24.0002C56 28.4185 52.4183 32.0002 48 32.0002C43.5817 32.0002 40 28.4185 40 24.0002C40 19.582 43.5817 16.0002 48 16.0002C52.4183 16.0002 56 19.582 56 24.0002Z" fill="#009865"/>
<path d="M201.175 60C198.563 60 196.375 59.5211 194.612 58.5633C192.849 57.5837 191.51 56.2993 190.596 54.7102C189.703 53.0993 189.257 51.3361 189.257 49.4204C189.257 47.6354 189.572 46.0681 190.204 44.7184C190.835 43.3688 191.771 42.2259 193.012 41.2899C194.253 40.332 195.777 39.5593 197.583 38.9715C199.151 38.5144 200.925 38.1116 202.906 37.7633C204.887 37.415 206.966 37.0885 209.142 36.7838C211.341 36.479 213.518 36.1742 215.673 35.8695L213.191 37.2409C213.235 34.4763 212.647 32.43 211.428 31.1021C210.231 29.7525 208.163 29.0777 205.224 29.0777C203.374 29.0777 201.676 29.513 200.13 30.3838C198.585 31.2327 197.507 32.6477 196.898 34.6287L190.53 32.6695C191.401 29.6436 193.055 27.2382 195.494 25.4532C197.953 23.6682 201.219 22.7756 205.289 22.7756C208.446 22.7756 211.189 23.3199 213.518 24.4083C215.869 25.4749 217.589 27.1729 218.677 29.5021C219.243 30.6559 219.591 31.8749 219.722 33.1593C219.853 34.4436 219.918 35.8259 219.918 37.3062V59.0204H213.877V50.9551L215.053 52C213.594 54.6993 211.733 56.7129 209.469 58.0408C207.227 59.3469 204.462 60 201.175 60ZM202.383 54.4163C204.321 54.4163 205.986 54.0789 207.379 53.4041C208.772 52.7075 209.894 51.8259 210.742 50.7592C211.591 49.6926 212.147 48.5824 212.408 47.4286C212.778 46.3837 212.985 45.2082 213.028 43.9021C213.094 42.596 213.126 41.5511 213.126 40.7674L215.347 41.5837C213.191 41.9103 211.232 42.2041 209.469 42.4654C207.706 42.7266 206.106 42.9878 204.669 43.249C203.254 43.4885 201.991 43.7824 200.881 44.1307C199.945 44.4572 199.107 44.849 198.367 45.3062C197.649 45.7633 197.072 46.3184 196.636 46.9715C196.223 47.6245 196.016 48.4191 196.016 49.3551C196.016 50.2694 196.245 51.1184 196.702 51.9021C197.159 52.664 197.855 53.2735 198.792 53.7306C199.728 54.1878 200.925 54.4163 202.383 54.4163Z" fill="#009865"/>
<path d="M184.435 59.0203C182.214 59.4557 180.038 59.6407 177.904 59.5754C175.771 59.5101 173.866 59.0965 172.19 58.3346C170.514 57.5727 169.251 56.3754 168.402 54.7428C167.64 53.2843 167.227 51.804 167.161 50.302C167.118 48.7782 167.096 47.0584 167.096 45.1428V13.9592H173.953V44.8163C173.953 46.2312 173.964 47.4612 173.986 48.5061C174.029 49.5509 174.258 50.4326 174.672 51.1509C175.455 52.5006 176.696 53.2734 178.394 53.4693C180.114 53.6435 182.127 53.5673 184.435 53.2407V59.0203ZM160.337 29.2408V23.7551H184.435V29.2408H160.337Z" fill="#009865"/>
<path d="M140.427 60C136.9 60 133.842 59.2054 131.251 57.6163C128.661 56.0272 126.658 53.8395 125.243 51.0531C123.85 48.2449 123.153 45.0123 123.153 41.3552C123.153 37.6763 123.872 34.4436 125.308 31.6572C126.745 28.8491 128.759 26.6722 131.349 25.1266C133.94 23.5593 136.966 22.7756 140.427 22.7756C143.953 22.7756 147.012 23.5702 149.602 25.1593C152.193 26.7484 154.195 28.9362 155.61 31.7225C157.025 34.5089 157.733 37.7198 157.733 41.3552C157.733 45.0341 157.014 48.2776 155.578 51.0857C154.163 53.8721 152.16 56.0599 149.57 57.649C146.979 59.2163 143.931 60 140.427 60ZM140.427 53.5674C143.801 53.5674 146.315 52.4354 147.97 50.1715C149.646 47.8858 150.484 44.947 150.484 41.3552C150.484 37.6763 149.635 34.7375 147.937 32.5389C146.261 30.3185 143.757 29.2083 140.427 29.2083C138.141 29.2083 136.258 29.7307 134.778 30.7756C133.298 31.7987 132.198 33.2246 131.48 35.0531C130.761 36.8599 130.402 38.9606 130.402 41.3552C130.402 45.0558 131.251 48.0164 132.949 50.2368C134.647 52.4572 137.14 53.5674 140.427 53.5674Z" fill="#009865"/>
<path d="M102.588 59.9998C99.2136 59.9998 96.3836 59.1835 94.0979 57.5509C91.8122 55.8965 90.0816 53.6652 88.9061 50.857C87.7306 48.0489 87.1429 44.8815 87.1429 41.355C87.1429 37.8285 87.7197 34.6612 88.8735 31.853C90.049 29.0448 91.7687 26.8353 94.0326 25.2244C96.3183 23.5918 99.1265 22.7755 102.457 22.7755C105.766 22.7755 108.618 23.5918 111.012 25.2244C113.428 26.8353 115.29 29.0448 116.596 31.853C117.902 34.6394 118.555 37.8067 118.555 41.355C118.555 44.8815 117.902 48.0597 116.596 50.8897C115.311 53.6978 113.472 55.9182 111.077 57.5509C108.705 59.1835 105.875 59.9998 102.588 59.9998ZM86 59.0203V12H92.8571V33.6489H92.0735V59.0203H86ZM101.641 53.8284C103.818 53.8284 105.614 53.2733 107.029 52.1631C108.465 51.0529 109.532 49.5618 110.228 47.6897C110.947 45.7958 111.306 43.6843 111.306 41.355C111.306 39.0475 110.947 36.9577 110.228 35.0856C109.532 33.2135 108.454 31.7224 106.996 30.6122C105.537 29.502 103.676 28.9469 101.412 28.9469C99.2789 28.9469 97.5156 29.4693 96.1224 30.5142C94.751 31.5591 93.7279 33.0176 93.053 34.8897C92.4 36.7618 92.0735 38.9169 92.0735 41.355C92.0735 43.7931 92.4 45.9482 93.053 47.8203C93.7061 49.6924 94.7401 51.1618 96.1551 52.2284C97.57 53.2951 99.3986 53.8284 101.641 53.8284Z" fill="#009865"/>
</svg>
