<svg width="2010" height="616" viewBox="0 0 2010 616" fill="none" xmlns="http://www.w3.org/2000/svg">
<path d="M1824.48 537C1800.07 537 1779.42 532.41 1762.52 523.231C1745.62 513.843 1732.79 501.431 1724.03 485.993C1715.47 470.556 1711.2 453.553 1711.2 434.986C1711.2 418.714 1713.91 404.111 1719.33 391.177C1724.76 378.034 1733.1 366.769 1744.37 357.381C1755.63 347.785 1770.24 339.962 1788.18 333.912C1801.74 329.531 1817.59 325.567 1835.74 322.021C1854.1 318.474 1873.92 315.241 1895.2 312.32C1916.69 309.191 1939.11 305.853 1962.48 302.306L1935.57 317.64C1935.77 294.275 1930.56 277.064 1919.92 266.007C1909.28 254.95 1891.34 249.422 1866.1 249.422C1850.87 249.422 1836.16 252.968 1821.97 260.061C1807.79 267.154 1797.88 279.358 1792.25 296.674L1723.4 275.082C1731.75 246.501 1747.6 223.554 1770.97 206.238C1794.54 188.923 1826.25 180.266 1866.1 180.266C1896.14 180.266 1922.53 185.168 1945.27 194.973C1968.21 204.778 1985.22 220.842 1996.27 243.164C2002.32 255.055 2005.97 267.259 2007.23 279.776C2008.48 292.084 2009.1 305.54 2009.1 320.143V527.612H1943.08V454.388L1954.03 466.279C1938.8 490.687 1920.96 508.628 1900.52 520.102C1880.28 531.367 1854.94 537 1824.48 537ZM1839.5 476.918C1856.6 476.918 1871.21 473.893 1883.31 467.844C1895.41 461.794 1905 454.388 1912.1 445.626C1919.4 436.864 1924.3 428.624 1926.8 420.905C1930.77 411.308 1932.96 400.356 1933.37 388.048C1934 375.531 1934.31 365.413 1934.31 357.694L1957.47 364.578C1934.73 368.125 1915.23 371.254 1898.95 373.966C1882.68 376.678 1868.7 379.286 1857.02 381.789C1845.34 384.084 1835.01 386.692 1826.04 389.612C1817.28 392.742 1809.87 396.392 1803.82 400.565C1797.77 404.737 1793.08 409.535 1789.74 414.959C1786.61 420.383 1785.05 426.746 1785.05 434.048C1785.05 442.392 1787.13 449.798 1791.31 456.265C1795.48 462.524 1801.53 467.531 1809.46 471.286C1817.59 475.041 1827.61 476.918 1839.5 476.918Z" fill="#00A73E"/>
<path d="M1672.95 527.612C1650.62 531.785 1628.72 533.558 1607.23 532.932C1585.95 532.515 1566.87 528.656 1549.97 521.354C1533.07 513.844 1520.24 502.057 1511.48 485.993C1503.76 471.39 1499.69 456.474 1499.27 441.245C1498.86 426.016 1498.65 408.805 1498.65 389.613V95.7761H1573.75V385.232C1573.75 398.792 1573.85 410.683 1574.06 420.905C1574.48 431.127 1576.67 439.472 1580.63 445.939C1588.14 458.456 1600.14 465.445 1616.62 466.905C1633.1 468.365 1651.88 467.531 1672.95 464.402V527.612ZM1437.31 248.796V189.654H1672.95V248.796H1437.31Z" fill="#00A73E"/>
<path d="M1252.9 537C1219.1 537 1189.58 529.385 1164.34 514.156C1139.1 498.927 1119.49 477.961 1105.51 451.259C1091.74 424.347 1084.86 393.472 1084.86 358.633C1084.86 323.168 1091.95 292.084 1106.14 265.381C1120.32 238.678 1140.04 217.817 1165.28 202.796C1190.52 187.776 1219.73 180.266 1252.9 180.266C1286.9 180.266 1316.53 187.88 1341.77 203.109C1367.01 218.338 1386.62 239.408 1400.6 266.32C1414.58 293.023 1421.57 323.794 1421.57 358.633C1421.57 393.68 1414.47 424.66 1400.29 451.571C1386.31 478.274 1366.7 499.24 1341.46 514.469C1316.21 529.49 1286.69 537 1252.9 537ZM1252.9 466.279C1282.94 466.279 1305.26 456.265 1319.86 436.238C1334.47 416.211 1341.77 390.342 1341.77 358.633C1341.77 325.88 1334.36 299.803 1319.55 280.402C1304.74 260.792 1282.52 250.987 1252.9 250.987C1232.66 250.987 1215.97 255.576 1202.83 264.755C1189.9 273.726 1180.3 286.347 1174.04 302.619C1167.78 318.683 1164.65 337.354 1164.65 358.633C1164.65 391.386 1172.06 417.567 1186.87 437.177C1201.89 456.578 1223.9 466.279 1252.9 466.279Z" fill="#00A73E"/>
<path d="M896.034 536.999C863.072 536.999 835.431 529.176 813.109 513.53C790.787 497.884 773.993 476.605 762.728 449.693C751.463 422.573 745.83 392.22 745.83 358.632C745.83 324.628 751.463 294.17 762.728 267.258C773.993 240.347 790.474 219.172 812.17 203.735C834.075 188.088 861.091 180.265 893.218 180.265C925.136 180.265 952.778 188.088 976.143 203.735C999.716 219.172 1017.97 240.347 1030.9 267.258C1043.84 293.961 1050.31 324.419 1050.31 358.632C1050.31 392.428 1043.94 422.782 1031.22 449.693C1018.49 476.605 1000.55 497.884 977.394 513.53C954.238 529.176 927.118 536.999 896.034 536.999ZM733 527.612V77H809.041V290.415H799.653V527.612H733ZM884.456 469.408C904.066 469.408 920.233 464.505 932.959 454.7C945.685 444.895 955.072 431.648 961.122 414.959C967.381 398.061 970.51 379.285 970.51 358.632C970.51 338.188 967.381 319.621 961.122 302.932C954.864 286.034 945.163 272.682 932.02 262.877C918.877 252.864 902.188 247.857 881.952 247.857C862.76 247.857 847.113 252.551 835.014 261.939C822.914 271.118 813.943 284.052 808.102 300.741C802.469 317.222 799.653 336.519 799.653 358.632C799.653 380.537 802.469 399.834 808.102 416.523C813.943 433.213 823.018 446.251 835.326 455.639C847.843 464.818 864.22 469.408 884.456 469.408Z" fill="#00A73E"/>
<circle cx="416" cy="200" r="56" fill="#00A73E"/>
<circle cx="60" cy="556" r="60" fill="#00A73E"/>
<path d="M552 313.6V64H473.6C395.785 64 339.348 64.0252 294.93 67.6543C250.885 71.2529 221.483 78.2353 197.227 90.5947C151.315 113.988 113.988 151.315 90.5947 197.227C78.2353 221.483 71.2529 250.885 67.6543 294.93C64.0252 339.348 64 395.785 64 473.6V552H313.6C361.452 552 395.417 551.975 421.993 549.804C448.195 547.663 464.384 543.597 477.196 537.068C502.974 523.934 523.934 502.974 537.068 477.196C543.597 464.384 547.663 448.195 549.804 421.993C551.975 395.417 552 361.452 552 313.6ZM616 313.6C616 360.396 616.024 397.419 613.591 427.205C611.127 457.365 605.984 482.914 594.093 506.252C574.822 544.073 544.073 574.822 506.252 594.093C482.914 605.984 457.365 611.127 427.205 613.591C397.419 616.024 360.396 616 313.6 616H4.13214e-06V473.6C4.04629e-06 396.841 -0.0252149 337.347 3.86621 289.718C7.78818 241.715 15.8476 202.954 33.5703 168.171C63.0993 110.217 110.217 63.0993 168.171 33.5703C202.954 15.8476 241.715 7.78818 289.718 3.86621C337.347 -0.0252149 396.841 4.0463e-06 473.6 4.13214e-06H616V313.6Z" fill="#00A73E"/>
<rect x="416" y="353" width="240" height="64" fill="#00A73E"/>
</svg>
