<svg width="72" height="72" viewBox="0 0 72 72" fill="none" xmlns="http://www.w3.org/2000/svg">
<path d="M64 46.4004V8H57.5996C47.3869 8 40.2081 8.00619 34.6064 8.46387C29.0983 8.91392 25.8227 9.7603 23.2881 11.0518C18.0196 13.7362 13.7362 18.0196 11.0518 23.2881C9.7603 25.8227 8.91392 29.0983 8.46387 34.6064C8.00619 40.2081 8 47.3869 8 57.5996V64H46.4004V72H0V57.5996C1.60107e-10 38.0682 0.000194073 27.9972 3.56738 20.3857L3.92383 19.6562C7.26749 13.094 12.5405 7.72022 19.0254 4.25293L19.6562 3.92383C27.357 8.79765e-05 37.438 1.64371e-10 57.5996 0H72L71.9971 49.5566C71.9732 56.4643 71.7818 60.2689 70.2559 63.2637C68.7219 66.2743 66.2743 68.7219 63.2637 70.2559C60.2689 71.7818 56.4643 71.9732 49.5566 71.9971L46.4004 72V64C51.0123 64 53.9903 63.9937 56.2568 63.8086C58.4301 63.631 59.2363 63.3295 59.6318 63.1279C61.1371 62.3609 62.3609 61.1371 63.1279 59.6318C63.3295 59.2363 63.631 58.4301 63.8086 56.2568C63.9937 53.9903 64 51.0123 64 46.4004Z" fill="#009865"/>
<path d="M40 52C40 63.0457 31.0457 72 20 72C8.9543 72 0 63.0457 0 52C0 40.9543 8.9543 32 20 32C31.0457 32 40 40.9543 40 52Z" fill="#009865"/>
<path d="M56 24.0002C56 28.4185 52.4183 32.0002 48 32.0002C43.5817 32.0002 40 28.4185 40 24.0002C40 19.582 43.5817 16.0002 48 16.0002C52.4183 16.0002 56 19.582 56 24.0002Z" fill="#009865"/>
</svg>
